<?xml version="1.0" encoding="UTF-8" standalone="no"?>
<svg
   xmlns:dc="http://purl.org/dc/elements/1.1/"
   xmlns:cc="http://creativecommons.org/ns#"
   xmlns:rdf="http://www.w3.org/1999/02/22-rdf-syntax-ns#"
   xmlns:svg="http://www.w3.org/2000/svg"
   xmlns="http://www.w3.org/2000/svg"
   viewBox="0 0 384 384"
   height="384"
   width="384"
   xml:space="preserve"
   id="svg2"
   version="1.1"><metadata
     id="metadata8"><rdf:RDF><cc:Work
         rdf:about=""><dc:format>image/svg+xml</dc:format><dc:type
           rdf:resource="http://purl.org/dc/dcmitype/StillImage" /></cc:Work></rdf:RDF></metadata><defs
     id="defs6"><radialGradient
       id="radialGradient20"
       spreadMethod="pad"
       gradientTransform="matrix(2111.48,0,0,-2111.48,1451.24,2011.86)"
       gradientUnits="userSpaceOnUse"
       r="1"
       cy="0"
       cx="0"
       fy="0"
       fx="0"><stop
         id="stop14"
         offset="0"
         style="stop-opacity:1;stop-color:#ffffff" /><stop
         id="stop16"
         offset="0.188172"
         style="stop-opacity:1;stop-color:#ffffff" /><stop
         id="stop18"
         offset="1"
         style="stop-opacity:1;stop-color:#cdcccb" /></radialGradient><clipPath
       id="clipPath30"
       clipPathUnits="userSpaceOnUse"><path
         id="path28"
         d="M 0,0.0117188 V 813.34 H 2880 V 0.0117188 Z" /></clipPath><radialGradient
       id="radialGradient38"
       spreadMethod="pad"
       gradientTransform="matrix(2111.51,0,0,-596.29,1451.24,568.17)"
       gradientUnits="userSpaceOnUse"
       r="1"
       cy="0"
       cx="0"
       fy="0"
       fx="0"><stop
         id="stop32"
         offset="0"
         style="stop-opacity:1;stop-color:#ffffff" /><stop
         id="stop34"
         offset="0.188172"
         style="stop-opacity:1;stop-color:#ffffff" /><stop
         id="stop36"
         offset="1"
         style="stop-opacity:1;stop-color:#cdcccb" /></radialGradient></defs><g
     transform="matrix(1.3333333,0,0,-1.3333333,0,384)"
     id="g10"><g
       transform="scale(0.1)"
       id="g12"><path
         id="path22"
         style="fill:url(#radialGradient20);fill-opacity:1;fill-rule:nonzero;stroke:none"
         d="M 0,0 V 2880 H 2880 V 0 H 0" /><g
         id="g24"><g
           clip-path="url(#clipPath30)"
           id="g26"><path
             id="path40"
             style="fill:url(#radialGradient38);fill-opacity:1;fill-rule:nonzero;stroke:none"
             d="M 0,0.0117188 V 813.34 H 2880 V 0.0117188 H 0" /></g></g><path
         id="path42"
         style="fill:#3992b9;fill-opacity:1;fill-rule:nonzero;stroke:none"
         d="m 400.602,1132.74 60.699,51.41 -74.875,26.86 z" /><path
         id="path44"
         style="fill:#3992b9;fill-opacity:1;fill-rule:nonzero;stroke:none"
         d="m 277.613,1403.76 -45.918,-23.72 43.504,-27.9 z" /><path
         id="path46"
         style="fill:#3992b9;fill-opacity:1;fill-rule:nonzero;stroke:none"
         d="m 249.156,1562.32 99.551,-28.25 -25.312,100.33 z" /><path
         id="path48"
         style="fill:#3992b9;fill-opacity:1;fill-rule:nonzero;stroke:none"
         d="m 704.867,1933.75 -6.777,87.78 -72.637,-49.76 z" /><path
         id="path50"
         style="fill:#3992b9;fill-opacity:1;fill-rule:nonzero;stroke:none"
         d="m 262.035,2055.06 -31.074,60.22 -36.621,-57.02 z" /><path
         id="path52"
         style="fill:#3992b9;fill-opacity:1;fill-rule:nonzero;stroke:none"
         d="m 286.016,2488.24 -57.996,-73.86 92.96,-13.29 z" /><path
         id="path54"
         style="fill:#3992b9;fill-opacity:1;fill-rule:nonzero;stroke:none"
         d="m 549.086,2466.87 61.203,49.84 -73.762,28.09 z" /><path
         id="path56"
         style="fill:#3992b9;fill-opacity:1;fill-rule:nonzero;stroke:none"
         d="m 723.785,2218.77 95.906,-7.89 -41.121,87 z" /><path
         id="path58"
         style="fill:#3992b9;fill-opacity:1;fill-rule:nonzero;stroke:none"
         d="m 965.215,2481.72 -49.524,21.47 6.184,-53.62 z" /><path
         id="path60"
         style="fill:#3992b9;fill-opacity:1;fill-rule:nonzero;stroke:none"
         d="m 1212.22,2233.36 -68.33,15.74 20.54,-67.05 z" /><path
         id="path62"
         style="fill:#3992b9;fill-opacity:1;fill-rule:nonzero;stroke:none"
         d="m 1400.31,2617.14 -52.48,29.17 0.98,-60.03 z" /><path
         id="path64"
         style="fill:#3992b9;fill-opacity:1;fill-rule:nonzero;stroke:none"
         d="m 1490.31,2107.74 -50.27,81.67 -45.59,-84.37 z" /><path
         id="path66"
         style="fill:#3992b9;fill-opacity:1;fill-rule:nonzero;stroke:none"
         d="m 1810.39,2410.12 -66.03,-52.78 78.72,-30.79 z" /><path
         id="path68"
         style="fill:#3992b9;fill-opacity:1;fill-rule:nonzero;stroke:none"
         d="m 1907.72,1953.51 -62.48,-45.17 70.36,-31.51 z" /><path
         id="path70"
         style="fill:#3992b9;fill-opacity:1;fill-rule:nonzero;stroke:none"
         d="m 2078.61,2471.27 84.23,-29.47 -16.59,87.67 z" /><path
         id="path72"
         style="fill:#3992b9;fill-opacity:1;fill-rule:nonzero;stroke:none"
         d="m 2626.73,2552.14 -37.05,-44.47 57.04,-9.85 z" /><path
         id="path74"
         style="fill:#3992b9;fill-opacity:1;fill-rule:nonzero;stroke:none"
         d="m 2271,2070.35 73.07,-33.74 -7.32,80.16 z" /><path
         id="path76"
         style="fill:#3992b9;fill-opacity:1;fill-rule:nonzero;stroke:none"
         d="m 2563.98,2257.06 92.03,-35.27 -15.48,97.33 z" /><path
         id="path78"
         style="fill:#3992b9;fill-opacity:1;fill-rule:nonzero;stroke:none"
         d="m 2725.72,1867.11 -49.13,76.47 -41.66,-80.78 z" /><path
         id="path80"
         style="fill:#3992b9;fill-opacity:1;fill-rule:nonzero;stroke:none"
         d="m 2756.14,1467.29 -59.9,37.1 -2.18,-70.43 z" /><path
         id="path82"
         style="fill:#3992b9;fill-opacity:1;fill-rule:nonzero;stroke:none"
         d="m 2193.37,1457.75 69.18,8.95 -42.35,55.44 z" /><path
         id="path84"
         style="fill:#3992b9;fill-opacity:1;fill-rule:nonzero;stroke:none"
         d="m 2534.59,1106.2 44.15,76.76 -88.56,-0.15 z" /><path
         id="path86"
         style="fill:#3992b9;fill-opacity:1;fill-rule:nonzero;stroke:none"
         d="m 2253.33,1175.47 -79.17,-36.96 71.6,-50.09 z" /><path
         id="path88"
         style="fill:#3992b9;fill-opacity:1;fill-rule:nonzero;stroke:none"
         d="m 2477.75,932.91 -30.12,45.11 -24,-48.649 z" /><path
         id="path90"
         style="fill:#ed254a;fill-opacity:1;fill-rule:nonzero;stroke:none"
         d="m 313.613,1196.74 -45.183,63.46 -32.36,-70.86 z" /><path
         id="path92"
         style="fill:#ed254a;fill-opacity:1;fill-rule:nonzero;stroke:none"
         d="m 470.156,1475.49 -38.023,50.09 -24.367,-57.97 z" /><path
         id="path94"
         style="fill:#ed254a;fill-opacity:1;fill-rule:nonzero;stroke:none"
         d="m 285.652,1868.49 -99.285,-24.67 71.016,-73.65 z" /><path
         id="path96"
         style="fill:#ed254a;fill-opacity:1;fill-rule:nonzero;stroke:none"
         d="m 995.199,2062.14 -22.754,53.93 -35.332,-46.67 z" /><path
         id="path98"
         style="fill:#ed254a;fill-opacity:1;fill-rule:nonzero;stroke:none"
         d="m 302.766,2182.13 58.054,14.66 -41.722,42.94 z" /><path
         id="path100"
         style="fill:#ed254a;fill-opacity:1;fill-rule:nonzero;stroke:none"
         d="m 195.41,2191.41 -20.273,91.39 -69.004,-63.25 z" /><path
         id="path102"
         style="fill:#ed254a;fill-opacity:1;fill-rule:nonzero;stroke:none"
         d="m 1021.14,1765.34 -35.144,87.28 -58.008,-74.08 z" /><path
         id="path104"
         style="fill:#ed254a;fill-opacity:1;fill-rule:nonzero;stroke:none"
         d="m 318.105,2583.06 51.215,-63.66 29.52,76.18 z" /><path
         id="path106"
         style="fill:#ed254a;fill-opacity:1;fill-rule:nonzero;stroke:none"
         d="m 803.551,2674.81 -56.906,11.91 18.136,-55.23 z" /><path
         id="path108"
         style="fill:#ed254a;fill-opacity:1;fill-rule:nonzero;stroke:none"
         d="m 1103.28,2537.94 -40.35,70.56 -40.93,-70.22 z" /><path
         id="path110"
         style="fill:#ed254a;fill-opacity:1;fill-rule:nonzero;stroke:none"
         d="m 1393.63,2376.7 -48.54,-34.71 54.33,-24.68 z" /><path
         id="path112"
         style="fill:#ed254a;fill-opacity:1;fill-rule:nonzero;stroke:none"
         d="m 1610.05,2289.36 -37.29,-40.77 53.95,-11.91 z" /><path
         id="path114"
         style="fill:#ed254a;fill-opacity:1;fill-rule:nonzero;stroke:none"
         d="m 1620.99,2625.31 50.67,64.75 -81.41,11.5 z" /><path
         id="path116"
         style="fill:#ed254a;fill-opacity:1;fill-rule:nonzero;stroke:none"
         d="m 1988.17,2496.48 -26.27,56.8 -36.06,-51.15 z" /><path
         id="path118"
         style="fill:#ed254a;fill-opacity:1;fill-rule:nonzero;stroke:none"
         d="m 2328.89,2599.03 92.53,-68.74 13.26,114.5 z" /><path
         id="path120"
         style="fill:#ed254a;fill-opacity:1;fill-rule:nonzero;stroke:none"
         d="m 1999.71,1747.46 -76.45,70.82 -23.11,-101.61 z" /><path
         id="path122"
         style="fill:#ed254a;fill-opacity:1;fill-rule:nonzero;stroke:none"
         d="m 2448.65,2109.89 -76.35,-50.89 82.26,-40.68 z" /><path
         id="path124"
         style="fill:#ed254a;fill-opacity:1;fill-rule:nonzero;stroke:none"
         d="m 2783.11,2535.34 -39.28,87.5 -56.13,-77.76 z" /><path
         id="path126"
         style="fill:#ed254a;fill-opacity:1;fill-rule:nonzero;stroke:none"
         d="m 2510.54,1793.54 89.98,26.35 -67.82,64.75 z" /><path
         id="path128"
         style="fill:#ed254a;fill-opacity:1;fill-rule:nonzero;stroke:none"
         d="m 2793.3,1638.26 -90.47,36.95 13.23,-96.83 z" /><path
         id="path130"
         style="fill:#ed254a;fill-opacity:1;fill-rule:nonzero;stroke:none"
         d="m 2430.78,1654.94 50.49,-14.23 -12.92,50.85 z" /><path
         id="path132"
         style="fill:#ed254a;fill-opacity:1;fill-rule:nonzero;stroke:none"
         d="m 2637.74,853.621 -57.22,55.899 -19.79,-77.5 z" /><path
         id="path134"
         style="fill:#ed254a;fill-opacity:1;fill-rule:nonzero;stroke:none"
         d="m 473.473,1892.41 69.812,-39.96 -0.301,80.44 z" /><path
         id="path136"
         style="fill:#ed254a;fill-opacity:1;fill-rule:nonzero;stroke:none"
         d="m 2737.11,1104.97 79.04,43.09 -76.83,46.91 z" /><path
         id="path138"
         style="fill:#ed254a;fill-opacity:1;fill-rule:nonzero;stroke:none"
         d="m 390.723,979.699 -77.559,13.391 27.188,-73.871 z" /><path
         id="path140"
         style="fill:#f9b20c;fill-opacity:1;fill-rule:nonzero;stroke:none"
         d="m 2267.35,1733.66 -64.5,-3.76 35.51,-53.98 z" /><path
         id="path142"
         style="fill:#f9b20c;fill-opacity:1;fill-rule:nonzero;stroke:none"
         d="m 2354.17,1333.63 -60.57,-49.55 73.2,-27.67 z" /><path
         id="path144"
         style="fill:#f9b20c;fill-opacity:1;fill-rule:nonzero;stroke:none"
         d="m 2673.75,2145.91 77.48,-42.85 -1.64,88.51 z" /><path
         id="path146"
         style="fill:#f9b20c;fill-opacity:1;fill-rule:nonzero;stroke:none"
         d="m 1945.09,1843.07 50.54,-9.96 -16.65,48.74 z" /><path
         id="path148"
         style="fill:#f9b20c;fill-opacity:1;fill-rule:nonzero;stroke:none"
         d="m 535.645,2222.6 50,52.48 -70.446,17.06 z" /><path
         id="path150"
         style="fill:#f9b20c;fill-opacity:1;fill-rule:nonzero;stroke:none"
         d="m 2370.63,1976.52 -48.15,17.28 9.11,-50.35 z" /><path
         id="path152"
         style="fill:#f9b20c;fill-opacity:1;fill-rule:nonzero;stroke:none"
         d="m 2055.44,2258.75 53.31,25.09 -48.38,33.62 z" /><path
         id="path154"
         style="fill:#f9b20c;fill-opacity:1;fill-rule:nonzero;stroke:none"
         d="m 1355.12,2585.9 -31.8,-40.31 50.81,-7.38 z" /><path
         id="path156"
         style="fill:#f9b20c;fill-opacity:1;fill-rule:nonzero;stroke:none"
         d="m 1696.25,2166.05 38.97,61.77 -72.98,2.88 z" /><path
         id="path158"
         style="fill:#f9b20c;fill-opacity:1;fill-rule:nonzero;stroke:none"
         d="m 1303.06,2207.29 -39.35,-41.18 55.33,-13.49 z" /><path
         id="path160"
         style="fill:#f9b20c;fill-opacity:1;fill-rule:nonzero;stroke:none"
         d="m 1036.69,2209.48 15.02,60.57 -59.968,-17.28 z" /><path
         id="path162"
         style="fill:#f9b20c;fill-opacity:1;fill-rule:nonzero;stroke:none"
         d="m 825.648,2103.9 95.473,-3.22 -44.949,84.3 z" /><path
         id="path164"
         style="fill:#f9b20c;fill-opacity:1;fill-rule:nonzero;stroke:none"
         d="m 105.387,1942.79 81.664,-31.97 -13.149,86.71 z" /><path
         id="path166"
         style="fill:#f9b20c;fill-opacity:1;fill-rule:nonzero;stroke:none"
         d="m 777.641,1708.87 18.449,51.75 -54.039,-9.91 z" /><path
         id="path168"
         style="fill:#f9b20c;fill-opacity:1;fill-rule:nonzero;stroke:none"
         d="m 317.77,2488.48 -45.352,49.1 -19.84,-63.83 z" /><path
         id="path170"
         style="fill:#f9b20c;fill-opacity:1;fill-rule:nonzero;stroke:none"
         d="M 472.406,1643.01 376,1665.55 404.684,1570.8 Z" /><path
         id="path172"
         style="fill:#f9b20c;fill-opacity:1;fill-rule:nonzero;stroke:none"
         d="m 470.855,1344.05 61.524,52.2 -75.977,27.18 z" /><path
         id="path174"
         style="fill:#f9b20c;fill-opacity:1;fill-rule:nonzero;stroke:none"
         d="m 1008.6,1977.66 41.39,46.23 -60.732,12.74 z" /><path
         id="path176"
         style="fill:#f9b20c;fill-opacity:1;fill-rule:nonzero;stroke:none"
         d="m 632.398,1088.94 -85.062,-25.22 64.379,-61.05 z" /><path
         id="path178"
         style="fill:#f9b20c;fill-opacity:1;fill-rule:nonzero;stroke:none"
         d="m 132.512,1091.53 56.019,-52.6 17.539,74.81 z" /><path
         id="path180"
         style="fill:#f9b20c;fill-opacity:1;fill-rule:nonzero;stroke:none"
         d="m 2425.04,1757.26 60.46,-57.67 19.71,81.2 z" /><path
         id="path182"
         style="fill:#f9b20c;fill-opacity:1;fill-rule:nonzero;stroke:none"
         d="m 632.68,1360.09 59.629,43.16 -67.196,30.06 z" /><path
         id="path184"
         style="fill:#f9b20c;fill-opacity:1;fill-rule:nonzero;stroke:none"
         d="m 2352.5,1602.14 c 26.01,-7.94 51.28,-22.48 71.86,-40.17 16.15,-13.9 19.69,-28.59 19.5,-48.71 -0.25,-24.98 -17.19,-43.44 -38.79,-54.19 -14.13,-7.04 -55.56,-10.07 -55.97,14.29 -0.32,18.22 1.56,25.51 20.91,31.47 23.63,7.28 44.49,2.78 62.49,-13.52 13.53,-12.23 23.55,-27.94 23.66,-46.42 0.12,-20.94 -5.32,-31.03 -28.57,-33.11 v 17.47 c 13.06,1.17 27.15,4.84 28.5,19.95 -0.02,-5.41 -0.03,-10.85 -0.05,-16.26 -0.46,22.24 -22.88,43.83 -41.1,53.62 -14.22,7.62 -62.02,6.86 -65.8,-14.39 0,5.82 0,11.64 0,17.45 2.04,-22.04 38.21,-19.75 52.18,-14.7 21.16,7.63 41.99,28.59 42.43,52.06 0.01,-5.42 0.03,-10.86 0.04,-16.27 -3.36,38.42 -59.19,64.18 -91.29,73.96 -1.75,0.53 1.49,17.01 0,17.47" /><path
         id="path186"
         style="fill:#3992b9;fill-opacity:1;fill-rule:nonzero;stroke:none"
         d="m 592.781,1895.59 c 20.942,-8.56 40.383,-21.28 54.801,-38.87 10.305,-12.56 11.035,-25.92 10.887,-41.17 -0.395,-39.36 -53.059,-44.12 -55.903,-79.7 0.012,5.77 0.016,11.54 0.028,17.3 1.82,-34.37 43.808,-39.91 62.992,-61.22 6.078,-6.76 13.113,-25.74 5.113,-33.79 -8.109,-8.15 -19.582,-11.71 -27.715,-20.88 -11.164,-12.58 -6.644,-19.05 -3.812,-34.56 2.785,-15.3 2.687,-34.33 -2.332,-48.99 1.781,5.22 -1.817,12.33 0,17.62 5.871,17.15 -2.402,38.49 -2.215,57.19 0.121,12.15 3.777,21.2 11.93,30.39 5.008,5.65 25.816,13.37 26.289,21.11 0.008,-5.77 0.011,-11.54 0.023,-17.31 -6.695,23.67 -38.371,30.56 -55.367,44.24 -13.793,11.11 -15.102,26.17 -15.012,42.16 0.223,37.64 54.973,42.78 55.891,81.17 0.012,-5.77 0.019,-11.53 0.023,-17.31 -3.097,32.17 -38.535,53.93 -65.621,65 -2.168,0.88 1.942,16.83 0,17.62" /><path
         id="path188"
         style="fill:#f9b20c;fill-opacity:1;fill-rule:nonzero;stroke:none"
         d="m 1449.45,2485.59 c 20.94,-8.56 40.38,-21.28 54.8,-38.87 10.3,-12.56 11.03,-25.92 10.88,-41.17 -0.39,-39.36 -53.05,-44.12 -55.9,-79.7 0.01,5.77 0.02,11.54 0.03,17.3 1.82,-34.36 43.81,-39.91 62.99,-61.22 6.08,-6.76 13.12,-25.74 5.11,-33.79 -8.11,-8.15 -19.58,-11.71 -27.71,-20.88 -11.16,-12.58 -6.65,-19.05 -3.82,-34.56 2.79,-15.3 2.7,-34.32 -2.32,-48.99 1.78,5.22 -1.82,12.33 0,17.62 5.87,17.15 -2.41,38.49 -2.22,57.19 0.12,12.16 3.78,21.2 11.93,30.39 5.01,5.64 25.82,13.36 26.29,21.11 0.01,-5.77 0.01,-11.54 0.02,-17.31 -6.69,23.67 -38.37,30.56 -55.36,44.24 -13.8,11.11 -15.11,26.16 -15.01,42.16 0.22,37.64 54.97,42.78 55.88,81.17 0.01,-5.77 0.02,-11.53 0.03,-17.31 -3.1,32.17 -38.54,53.93 -65.62,65 -2.17,0.88 1.94,16.83 0,17.62" /><path
         id="path190"
         style="fill:#ed254a;fill-opacity:1;fill-rule:nonzero;stroke:none"
         d="m 804.148,2038.81 c 43,12.38 64.399,-41.91 45.36,-74 -8.879,-14.95 -32.434,-21.96 -48.024,-14.53 -7.738,3.68 -5.355,18.3 -4.57,25.17 0.914,8.03 12.543,12.48 19.043,13.73 10.344,1.99 21.602,-1.98 30.922,-6.02 15.566,-6.77 34.582,-21.37 34.898,-39.94 0.278,-15.84 -0.238,-27.58 -12.148,-39.68 -14.731,-14.97 -41.207,-25 -62.102,-21.58 -1.019,0.17 0.774,16.74 0,16.87 17.184,-2.81 34.782,3.74 49.508,12.14 7.778,4.44 14.426,10.51 19.641,17.74 3.379,4.7 2.523,13.2 4.324,4.24 -0.801,3.97 -3.203,7.58 -5.402,10.89 -9.387,14.11 -26.922,23.18 -42.828,27.38 -11.649,3.08 -34.247,1.46 -36.051,-14.33 0,5.63 0,11.24 0,16.86 1.676,-11.61 20.219,-9.88 28.215,-8.34 16.925,3.3 29.007,17.38 30.593,34.26 -0.015,-5.24 -0.035,-10.48 -0.047,-15.71 -0.445,27 -25.75,45.36 -51.332,37.98 1.379,0.4 -1.605,16.4 0,16.87" /><path
         id="path192"
         style="fill:#3992b9;fill-opacity:1;fill-rule:nonzero;stroke:none"
         d="m 2643.55,1427.29 c -12.02,9.42 -27.51,16.56 -40.92,5.67 -13.36,-10.84 -9.39,-26.18 -2.28,-39.21 6.36,-11.67 13.74,-30.01 28.39,-32.77 6.49,-1.23 13.14,4.46 15.89,9.71 0.94,3.37 1.16,2.69 0.66,-2.04 -0.38,1.42 -0.92,2.78 -1.62,4.07 -1.29,2.74 -3.64,4.76 -6.01,6.51 -11.23,8.3 -28.84,-1.24 -36.79,-9.73 -9.74,-10.38 -13.21,-25.87 -14.64,-39.56 -0.57,-5.42 0.52,-12.3 2.39,-20.95 1.57,-7.29 3.22,-12.25 10.12,-15.82 11.24,-5.81 30.88,-1.66 32.66,12.41 0,-4.23 0,-8.44 0,-12.65 -1.15,12.89 -27.22,-3.89 -31.35,-7.37 -17.62,-14.83 -11.54,-41.49 4.31,-54.27 2.11,-1.7 -2.01,-11.03 0,-12.64 -28.14,22.7 -20.95,90.47 22.18,91.45 6.07,0.13 4.92,-6.78 4.92,-10.85 0,-7.81 -0.65,-14.28 -8.47,-18.21 -9.23,-4.65 -22.93,-3.76 -30.25,3.78 -5.96,6.17 -6.2,21.09 -6.79,29.26 -1.19,16.61 -0.46,34.14 4.78,50.01 5.9,17.88 29.06,41 48.75,26.43 9.7,-7.16 9.07,-30.04 1.11,-37.91 -19.71,-19.49 -40.74,26.79 -45.39,40.14 -3.99,11.45 -3.73,28.17 -0.55,39.84 6.88,25.33 32.97,19.84 48.9,7.34 2.11,-1.65 -1.99,-11.08 0,-12.64" /><path
         id="path194"
         style="fill:#ed254a;fill-opacity:1;fill-rule:nonzero;stroke:none"
         d="m 458.949,2352.17 c -14.125,-8.12 -20.379,-25.58 -17.015,-41.46 3.789,-17.86 18.941,-31.25 21.582,-48.77 1.312,-8.7 2.379,-17.48 3.015,-26.26 0.91,-12.51 -7.093,-15.34 -16.008,-21.66 -30.285,-21.48 -12.925,-54.13 -9.628,-83.54 3.953,-35.31 -2.309,-64.04 -18.137,-96.04 2.16,4.37 -4.141,13.02 -1.914,17.52 9.328,18.84 17.203,37.72 19.715,58.75 2.339,19.6 -5.422,38.05 -8.446,57.18 -4.008,25.35 -4.043,49.08 19.231,65.59 11.582,8.21 16.105,11.32 8.484,25.17 -8.113,14.76 -15.519,27.05 -17.762,44.12 -2.996,22.8 -8.714,53.29 14.969,66.92 -1.937,-1.12 4.063,-16.28 1.914,-17.52" /><path
         id="path196"
         style="fill:#ed254a;fill-opacity:1;fill-rule:nonzero;stroke:none"
         d="m 2462.68,2423.6 c 26.3,-5.53 51.62,-24.65 72.51,-40.56 19.69,-14.99 33.16,-29.28 33.24,-54.29 0.06,-24 -1.93,-39.43 -20.83,-56.82 -23.3,-21.41 -57.03,-35.48 -57.53,-71.83 -0.03,9.31 -0.05,18.61 -0.07,27.92 4.18,-34.3 53.63,-38.05 54.23,-71.63 0.2,-10.74 1.33,-22.23 0.02,-32.91 -3.34,-27.2 -35.86,-32.33 -36.9,-61.73 -0.02,9.81 -0.04,19.61 -0.04,29.42 2.91,-21.53 13.84,-37.5 27.27,-54.07 4.98,-6.13 -4.79,-24.05 0,-29.96 -20.12,24.81 -27.58,45.82 -27.41,76.61 0.09,12.98 0.5,21.9 8.97,32.48 10.71,13.36 25.82,18.54 28.11,37.21 -0.03,-9.3 -0.05,-18.6 -0.08,-27.91 -0.41,22.6 -23.47,32.22 -38.78,44.45 -15.72,12.6 -15.58,28.82 -15.54,47.04 0.07,23.93 4.75,40.6 23.11,57.42 20.57,18.85 54.22,32.86 55.28,64.77 0.02,-9.8 0.04,-19.6 0.04,-29.41 -2.88,23.32 -26.97,39.08 -44.58,51.81 -17.71,12.8 -39.26,27.45 -61.02,32.03 -2.23,0.46 1.79,29.58 0,29.96" /><path
         id="path198"
         style="fill:#f9b20c;fill-opacity:1;fill-rule:nonzero;stroke:none"
         d="m 132.68,1608.6 c 26.304,-5.52 51.617,-24.65 72.511,-40.56 19.692,-14.99 33.164,-29.28 33.243,-54.29 0.058,-24 -1.93,-39.43 -20.832,-56.82 -23.301,-21.41 -57.032,-35.48 -57.528,-71.83 -0.035,9.31 -0.051,18.61 -0.074,27.92 4.184,-34.3 53.629,-38.05 54.234,-71.62 0.2,-10.75 1.329,-22.24 0.012,-32.92 -3.332,-27.2 -35.851,-32.33 -36.898,-61.73 -0.012,9.81 -0.035,19.61 -0.039,29.42 2.91,-21.53 13.843,-37.5 27.277,-54.07 4.977,-6.13 -4.789,-24.05 0,-29.96 -20.121,24.81 -27.582,45.82 -27.414,76.61 0.086,12.98 0.5,21.9 8.965,32.48 10.715,13.36 25.82,18.55 28.109,37.21 -0.023,-9.29 -0.047,-18.6 -0.07,-27.91 -0.414,22.6 -23.477,32.21 -38.785,44.45 -15.723,12.6 -15.582,28.82 -15.543,47.04 0.07,23.93 4.754,40.6 23.113,57.42 20.57,18.85 54.219,32.86 55.281,64.77 0.016,-9.8 0.035,-19.61 0.039,-29.42 -2.886,23.33 -26.972,39.09 -44.586,51.82 -17.711,12.8 -39.254,27.45 -61.015,32.03 -2.227,0.46 1.793,29.58 0,29.96" /><path
         id="path200"
         style="fill:#ed254a;fill-opacity:1;fill-rule:nonzero;stroke:none"
         d="m 693.629,2643.63 c -19.699,-4.15 -38.668,-18.47 -54.316,-30.4 -14.758,-11.21 -24.848,-21.93 -24.911,-40.66 -0.043,-18 1.442,-29.56 15.598,-42.57 17.465,-16.05 42.742,-26.58 43.121,-53.82 0.008,6.97 0.027,13.94 0.043,20.91 -3.125,-25.7 -40.172,-28.5 -40.625,-53.67 -0.16,-8.05 -0.996,-16.64 -0.023,-24.65 2.504,-20.38 26.863,-24.23 27.644,-46.25 0.028,7.34 0.035,14.7 0.035,22.05 -2.172,-16.13 -10.359,-28.11 -20.429,-40.52 -3.727,-4.58 3.589,-18.01 0,-22.44 15.074,18.58 20.668,34.32 20.531,57.39 -0.059,9.72 -0.375,16.41 -6.719,24.34 -8.027,10 -19.34,13.89 -21.062,27.87 0.035,-6.96 0.043,-13.94 0.058,-20.9 0.317,16.93 17.598,24.12 29.063,33.3 11.785,9.44 11.676,21.6 11.64,35.24 -0.047,17.93 -3.554,30.42 -17.304,43.03 -15.414,14.12 -40.637,24.61 -41.422,48.53 -0.02,-7.35 -0.02,-14.7 -0.035,-22.05 2.168,17.48 20.207,29.28 33.406,38.82 13.269,9.59 29.406,20.58 45.707,24 1.676,0.35 -1.34,22.16 0,22.45" /><path
         id="path202"
         style="fill:#3992b9;fill-opacity:1;fill-rule:nonzero;stroke:none"
         d="m 2170.17,2159.25 c -20.52,-4.31 -40.27,-19.22 -56.57,-31.64 -15.36,-11.68 -25.88,-22.84 -25.93,-42.34 -0.05,-18.73 1.5,-30.78 16.24,-44.33 18.18,-16.72 44.51,-27.69 44.89,-56.04 0.01,7.26 0.04,14.51 0.06,21.78 -3.26,-26.76 -41.84,-29.68 -42.31,-55.88 -0.16,-8.39 -1.04,-17.35 -0.01,-25.67 2.6,-21.24 27.96,-25.23 28.78,-48.17 0.02,7.65 0.03,15.31 0.04,22.96 -2.27,-16.8 -10.81,-29.26 -21.29,-42.19 -3.87,-4.78 3.74,-18.76 0,-23.36 15.7,19.35 21.52,35.74 21.38,59.76 -0.06,10.12 -0.39,17.08 -6.99,25.34 -8.35,10.42 -20.13,14.46 -21.92,29.03 0.01,-7.25 0.03,-14.52 0.06,-21.78 0.32,17.64 18.32,25.13 30.25,34.68 12.27,9.82 12.16,22.49 12.11,36.68 -0.04,18.69 -3.69,31.68 -18.02,44.81 -16.05,14.71 -42.3,25.63 -43.12,50.53 -0.01,-7.65 -0.03,-15.31 -0.04,-22.96 2.26,18.21 21.04,30.5 34.79,40.43 13.81,9.99 30.62,21.42 47.6,24.99 1.74,0.37 -1.4,23.08 0,23.37" /><path
         id="path204"
         style="fill:#ed254a;fill-opacity:1;fill-rule:nonzero;stroke:none"
         d="m 579.684,1179.47 c 0,-3.66 2.968,-6.63 6.629,-6.63 3.667,0 6.64,2.97 6.64,6.63 0,3.67 -2.973,6.64 -6.64,6.64 -3.661,0 -6.629,-2.97 -6.629,-6.64" /><path
         id="path206"
         style="fill:#ed254a;fill-opacity:1;fill-rule:nonzero;stroke:none"
         d="m 306.645,1355.87 c 0,-5.96 4.832,-10.79 10.781,-10.79 5.957,0 10.789,4.83 10.789,10.79 0,5.95 -4.832,10.78 -10.789,10.78 -5.949,0 -10.781,-4.83 -10.781,-10.78" /><path
         id="path208"
         style="fill:#ed254a;fill-opacity:1;fill-rule:nonzero;stroke:none"
         d="m 538.305,1549.48 c 0,-6.42 5.211,-11.63 11.633,-11.63 6.425,0 11.64,5.21 11.64,11.63 0,6.43 -5.215,11.64 -11.64,11.64 -6.422,0 -11.633,-5.21 -11.633,-11.64" /><path
         id="path210"
         style="fill:#ed254a;fill-opacity:1;fill-rule:nonzero;stroke:none"
         d="m 487.598,1784.28 c 0,-4.88 3.957,-8.83 8.832,-8.83 4.879,0 8.828,3.95 8.828,8.83 0,4.88 -3.949,8.83 -8.828,8.83 -4.875,0 -8.832,-3.95 -8.832,-8.83" /><path
         id="path212"
         style="fill:#ed254a;fill-opacity:1;fill-rule:nonzero;stroke:none"
         d="m 477.543,1838.18 c 0,-6.07 4.922,-10.98 10.988,-10.98 6.074,0 10.989,4.91 10.989,10.98 0,6.07 -4.915,10.99 -10.989,10.99 -6.066,0 -10.988,-4.92 -10.988,-10.99" /><path
         id="path214"
         style="fill:#ed254a;fill-opacity:1;fill-rule:nonzero;stroke:none"
         d="m 493.43,1981.99 c 0,-4.18 3.383,-7.56 7.55,-7.56 4.176,0 7.559,3.38 7.559,7.56 0,4.17 -3.383,7.56 -7.559,7.56 -4.167,0 -7.55,-3.39 -7.55,-7.56" /><path
         id="path216"
         style="fill:#ed254a;fill-opacity:1;fill-rule:nonzero;stroke:none"
         d="m 385.066,2390.14 c 0,-4.07 3.297,-7.36 7.356,-7.36 4.062,0 7.359,3.29 7.359,7.36 0,4.06 -3.297,7.35 -7.359,7.35 -4.059,0 -7.356,-3.29 -7.356,-7.35" /><path
         id="path218"
         style="fill:#ed254a;fill-opacity:1;fill-rule:nonzero;stroke:none"
         d="m 646.055,2287.89 c 0,-4.46 3.617,-8.08 8.086,-8.08 4.464,0 8.082,3.62 8.082,8.08 0,4.47 -3.618,8.09 -8.082,8.09 -4.469,0 -8.086,-3.62 -8.086,-8.09" /><path
         id="path220"
         style="fill:#ed254a;fill-opacity:1;fill-rule:nonzero;stroke:none"
         d="m 607.27,2585.04 c 0,-3.16 2.566,-5.73 5.726,-5.73 3.164,0 5.731,2.57 5.731,5.73 0,3.16 -2.567,5.73 -5.731,5.73 -3.16,0 -5.726,-2.57 -5.726,-5.73" /><path
         id="path222"
         style="fill:#ed254a;fill-opacity:1;fill-rule:nonzero;stroke:none"
         d="m 979.691,2457.4 c 0,-5.88 4.774,-10.65 10.657,-10.65 5.882,0 10.652,4.77 10.652,10.65 0,5.88 -4.77,10.66 -10.652,10.66 -5.883,0 -10.657,-4.78 -10.657,-10.66" /><path
         id="path224"
         style="fill:#ed254a;fill-opacity:1;fill-rule:nonzero;stroke:none"
         d="m 1076.39,2246.59 c 0,-2.59 2.1,-4.68 4.68,-4.68 2.58,0 4.67,2.09 4.67,4.68 0,2.57 -2.09,4.67 -4.67,4.67 -2.58,0 -4.68,-2.1 -4.68,-4.67" /><path
         id="path226"
         style="fill:#ed254a;fill-opacity:1;fill-rule:nonzero;stroke:none"
         d="m 1294.53,2628.71 c 0,-3.51 2.84,-6.35 6.35,-6.35 3.51,0 6.36,2.84 6.36,6.35 0,3.51 -2.85,6.36 -6.36,6.36 -3.51,0 -6.35,-2.85 -6.35,-6.36" /><path
         id="path228"
         style="fill:#ed254a;fill-opacity:1;fill-rule:nonzero;stroke:none"
         d="m 1384.03,2531.49 c 0,-6.4 5.19,-11.58 11.59,-11.58 6.39,0 11.58,5.18 11.58,11.58 0,6.39 -5.19,11.58 -11.58,11.58 -6.4,0 -11.59,-5.19 -11.59,-11.58" /><path
         id="path230"
         style="fill:#ed254a;fill-opacity:1;fill-rule:nonzero;stroke:none"
         d="m 1452.89,2574.88 c 0,-4.93 4,-8.93 8.93,-8.93 4.93,0 8.93,4 8.93,8.93 0,4.92 -4,8.93 -8.93,8.93 -4.93,0 -8.93,-4.01 -8.93,-8.93" /><path
         id="path232"
         style="fill:#ed254a;fill-opacity:1;fill-rule:nonzero;stroke:none"
         d="m 1747.71,2521.75 c 0,-5.73 4.65,-10.38 10.39,-10.38 5.73,0 10.38,4.65 10.38,10.38 0,5.73 -4.65,10.38 -10.38,10.38 -5.74,0 -10.39,-4.65 -10.39,-10.38" /><path
         id="path234"
         style="fill:#ed254a;fill-opacity:1;fill-rule:nonzero;stroke:none"
         d="m 2075.62,2676.35 c 0,-6.62 5.37,-11.99 11.99,-11.99 6.63,0 11.99,5.37 11.99,11.99 0,6.62 -5.36,12 -11.99,12 -6.62,0 -11.99,-5.38 -11.99,-12" /><path
         id="path236"
         style="fill:#ed254a;fill-opacity:1;fill-rule:nonzero;stroke:none"
         d="m 2182.02,2183.92 c 0,-4.92 3.99,-8.89 8.89,-8.89 4.92,0 8.89,3.97 8.89,8.89 0,4.91 -3.97,8.89 -8.89,8.89 -4.9,0 -8.89,-3.98 -8.89,-8.89" /><path
         id="path238"
         style="fill:#ed254a;fill-opacity:1;fill-rule:nonzero;stroke:none"
         d="m 2668.86,2163.37 c 0,-2.81 2.28,-5.1 5.09,-5.1 2.82,0 5.1,2.29 5.1,5.1 0,2.82 -2.28,5.1 -5.1,5.1 -2.81,0 -5.09,-2.28 -5.09,-5.1" /><path
         id="path240"
         style="fill:#ed254a;fill-opacity:1;fill-rule:nonzero;stroke:none"
         d="m 2591.87,1943.46 c 0,-3 2.43,-5.43 5.43,-5.43 3,0 5.43,2.43 5.43,5.43 0,3 -2.43,5.43 -5.43,5.43 -3,0 -5.43,-2.43 -5.43,-5.43" /><path
         id="path242"
         style="fill:#ed254a;fill-opacity:1;fill-rule:nonzero;stroke:none"
         d="m 2745.75,1894.21 c 0,-2.66 2.16,-4.82 4.82,-4.82 2.67,0 4.83,2.16 4.83,4.82 0,2.67 -2.16,4.83 -4.83,4.83 -2.66,0 -4.82,-2.16 -4.82,-4.83" /><path
         id="path244"
         style="fill:#ed254a;fill-opacity:1;fill-rule:nonzero;stroke:none"
         d="m 2503.55,1632.37 c 0,-2.73 2.21,-4.93 4.94,-4.93 2.72,0 4.93,2.2 4.93,4.93 0,2.72 -2.21,4.93 -4.93,4.93 -2.73,0 -4.94,-2.21 -4.94,-4.93" /><path
         id="path246"
         style="fill:#ed254a;fill-opacity:1;fill-rule:nonzero;stroke:none"
         d="m 2671.15,1320.42 c 0,-3.2 2.6,-5.8 5.8,-5.8 3.21,0 5.8,2.6 5.8,5.8 0,3.2 -2.59,5.8 -5.8,5.8 -3.2,0 -5.8,-2.6 -5.8,-5.8" /><path
         id="path248"
         style="fill:#ed254a;fill-opacity:1;fill-rule:nonzero;stroke:none"
         d="m 2797.62,1150.62 c 0,-5.6 4.54,-10.14 10.14,-10.14 5.6,0 10.14,4.54 10.14,10.14 0,5.6 -4.54,10.14 -10.14,10.14 -5.6,0 -10.14,-4.54 -10.14,-10.14" /><path
         id="path250"
         style="fill:#ed254a;fill-opacity:1;fill-rule:nonzero;stroke:none"
         d="m 2617.59,997.672 c 0,-2.594 2.1,-4.692 4.68,-4.692 2.59,0 4.68,2.098 4.68,4.692 0,2.578 -2.09,4.668 -4.68,4.668 -2.58,0 -4.68,-2.09 -4.68,-4.668" /><path
         id="path252"
         style="fill:#ed254a;fill-opacity:1;fill-rule:nonzero;stroke:none"
         d="m 2550.63,906.57 c 0,-5.031 4.08,-9.109 9.11,-9.109 5.03,0 9.11,4.078 9.11,9.109 0,5.032 -4.08,9.11 -9.11,9.11 -5.03,0 -9.11,-4.078 -9.11,-9.11" /><path
         id="path254"
         style="fill:#3992b9;fill-opacity:1;fill-rule:nonzero;stroke:none"
         d="m 200.191,974.68 c 0,-2.828 2.297,-5.129 5.129,-5.129 2.832,0 5.133,2.301 5.133,5.129 0,2.832 -2.301,5.129 -5.133,5.129 -2.832,0 -5.129,-2.297 -5.129,-5.129" /><path
         id="path256"
         style="fill:#3992b9;fill-opacity:1;fill-rule:nonzero;stroke:none"
         d="m 459.242,1278.6 c 0,-4.35 3.524,-7.87 7.867,-7.87 4.344,0 7.868,3.52 7.868,7.87 0,4.34 -3.524,7.86 -7.868,7.86 -4.343,0 -7.867,-3.52 -7.867,-7.86" /><path
         id="path258"
         style="fill:#3992b9;fill-opacity:1;fill-rule:nonzero;stroke:none"
         d="m 144.195,1566.36 c 0,-3.97 3.215,-7.19 7.184,-7.19 3.969,0 7.18,3.22 7.18,7.19 0,3.96 -3.211,7.18 -7.18,7.18 -3.969,0 -7.184,-3.22 -7.184,-7.18" /><path
         id="path260"
         style="fill:#3992b9;fill-opacity:1;fill-rule:nonzero;stroke:none"
         d="m 223.285,1679.54 c 0,-2.64 2.141,-4.77 4.774,-4.77 2.632,0 4.773,2.13 4.773,4.77 0,2.63 -2.141,4.77 -4.773,4.77 -2.633,0 -4.774,-2.14 -4.774,-4.77" /><path
         id="path262"
         style="fill:#3992b9;fill-opacity:1;fill-rule:nonzero;stroke:none"
         d="m 503.559,1712.63 c 0,-2.51 2.031,-4.54 4.543,-4.54 2.507,0 4.543,2.03 4.543,4.54 0,2.51 -2.036,4.55 -4.543,4.55 -2.512,0 -4.543,-2.04 -4.543,-4.55" /><path
         id="path264"
         style="fill:#3992b9;fill-opacity:1;fill-rule:nonzero;stroke:none"
         d="m 614.652,1944.77 c 0,-6.78 5.508,-12.29 12.289,-12.29 6.786,0 12.289,5.51 12.289,12.29 0,6.78 -5.503,12.29 -12.289,12.29 -6.781,0 -12.289,-5.51 -12.289,-12.29" /><path
         id="path266"
         style="fill:#3992b9;fill-opacity:1;fill-rule:nonzero;stroke:none"
         d="m 586.383,2112.75 c 0,-3.21 2.601,-5.81 5.808,-5.81 3.215,0 5.813,2.6 5.813,5.81 0,3.21 -2.598,5.81 -5.813,5.81 -3.207,0 -5.808,-2.6 -5.808,-5.81" /><path
         id="path268"
         style="fill:#3992b9;fill-opacity:1;fill-rule:nonzero;stroke:none"
         d="m 652.281,2480.42 c 0,-2.84 2.305,-5.14 5.145,-5.14 2.84,0 5.137,2.3 5.137,5.14 0,2.84 -2.297,5.14 -5.137,5.14 -2.84,0 -5.145,-2.3 -5.145,-5.14" /><path
         id="path270"
         style="fill:#3992b9;fill-opacity:1;fill-rule:nonzero;stroke:none"
         d="m 858.164,2618.1 c 0,-3.64 2.953,-6.6 6.598,-6.6 3.64,0 6.593,2.96 6.593,6.6 0,3.64 -2.953,6.6 -6.593,6.6 -3.645,0 -6.598,-2.96 -6.598,-6.6" /><path
         id="path272"
         style="fill:#3992b9;fill-opacity:1;fill-rule:nonzero;stroke:none"
         d="m 1111.93,2288.92 c 0,-3.5 2.84,-6.34 6.34,-6.34 3.49,0 6.33,2.84 6.33,6.34 0,3.5 -2.84,6.33 -6.33,6.33 -3.5,0 -6.34,-2.83 -6.34,-6.33" /><path
         id="path274"
         style="fill:#3992b9;fill-opacity:1;fill-rule:nonzero;stroke:none"
         d="m 1384.91,2715.16 c 0,-2.82 2.29,-5.11 5.11,-5.11 2.83,0 5.12,2.29 5.12,5.11 0,2.83 -2.29,5.12 -5.12,5.12 -2.82,0 -5.11,-2.29 -5.11,-5.12" /><path
         id="path276"
         style="fill:#3992b9;fill-opacity:1;fill-rule:nonzero;stroke:none"
         d="m 1658.46,2390.69 c 0,-5.52 4.48,-10 10,-10 5.53,0 10,4.48 10,10 0,5.53 -4.47,10.01 -10,10.01 -5.52,0 -10,-4.48 -10,-10.01" /><path
         id="path278"
         style="fill:#3992b9;fill-opacity:1;fill-rule:nonzero;stroke:none"
         d="m 1952.1,2431.9 c 0,-6.24 5.06,-11.29 11.3,-11.29 6.24,0 11.3,5.05 11.3,11.29 0,6.24 -5.06,11.3 -11.3,11.3 -6.24,0 -11.3,-5.06 -11.3,-11.3" /><path
         id="path280"
         style="fill:#3992b9;fill-opacity:1;fill-rule:nonzero;stroke:none"
         d="m 2145.33,2399.86 c 0,-6.17 5,-11.17 11.16,-11.17 6.17,0 11.16,5 11.16,11.17 0,6.16 -4.99,11.15 -11.16,11.15 -6.16,0 -11.16,-4.99 -11.16,-11.15" /><path
         id="path282"
         style="fill:#3992b9;fill-opacity:1;fill-rule:nonzero;stroke:none"
         d="m 2212.43,2307.46 c 0,-5.37 4.35,-9.73 9.72,-9.73 5.37,0 9.73,4.36 9.73,9.73 0,5.36 -4.36,9.72 -9.73,9.72 -5.37,0 -9.72,-4.36 -9.72,-9.72" /><path
         id="path284"
         style="fill:#3992b9;fill-opacity:1;fill-rule:nonzero;stroke:none"
         d="m 2372.55,2071.33 c 0,-3.67 2.97,-6.64 6.63,-6.64 3.67,0 6.64,2.97 6.64,6.64 0,3.66 -2.97,6.63 -6.64,6.63 -3.66,0 -6.63,-2.97 -6.63,-6.63" /><path
         id="path286"
         style="fill:#3992b9;fill-opacity:1;fill-rule:nonzero;stroke:none"
         d="m 2690.44,1922.42 c 0,-7.06 5.73,-12.79 12.79,-12.79 7.07,0 12.79,5.73 12.79,12.79 0,7.06 -5.72,12.79 -12.79,12.79 -7.06,0 -12.79,-5.73 -12.79,-12.79" /><path
         id="path288"
         style="fill:#3992b9;fill-opacity:1;fill-rule:nonzero;stroke:none"
         d="m 2700.58,1580.57 c 0,-2.64 2.13,-4.77 4.77,-4.77 2.64,0 4.78,2.13 4.78,4.77 0,2.64 -2.14,4.78 -4.78,4.78 -2.64,0 -4.77,-2.14 -4.77,-4.78" /><path
         id="path290"
         style="fill:#3992b9;fill-opacity:1;fill-rule:nonzero;stroke:none"
         d="m 2585.9,1461.06 c 0,-5.45 4.43,-9.87 9.88,-9.87 5.45,0 9.87,4.42 9.87,9.87 0,5.45 -4.42,9.87 -9.87,9.87 -5.45,0 -9.88,-4.42 -9.88,-9.87" /><path
         id="path292"
         style="fill:#3992b9;fill-opacity:1;fill-rule:nonzero;stroke:none"
         d="m 2820.28,1290.58 c 0,-4.01 3.25,-7.26 7.26,-7.26 4.01,0 7.26,3.25 7.26,7.26 0,4 -3.25,7.26 -7.26,7.26 -4.01,0 -7.26,-3.26 -7.26,-7.26" /><path
         id="path294"
         style="fill:#3992b9;fill-opacity:1;fill-rule:nonzero;stroke:none"
         d="m 2369.41,1117.42 c 0,-4.53 3.68,-8.2 8.21,-8.2 4.53,0 8.2,3.67 8.2,8.2 0,4.53 -3.67,8.2 -8.2,8.2 -4.53,0 -8.21,-3.67 -8.21,-8.2" /><path
         id="path296"
         style="fill:#3992b9;fill-opacity:1;fill-rule:nonzero;stroke:none"
         d="m 2631.04,1013.82 c 0,-5.57 4.51,-10.08 10.08,-10.08 5.56,0 10.07,4.51 10.07,10.08 0,5.56 -4.51,10.08 -10.07,10.08 -5.57,0 -10.08,-4.52 -10.08,-10.08" /><path
         id="path298"
         style="fill:#3992b9;fill-opacity:1;fill-rule:nonzero;stroke:none"
         d="m 2511.55,909.789 c 0,-5.078 4.12,-9.199 9.2,-9.199 5.08,0 9.2,4.121 9.2,9.199 0,5.082 -4.12,9.199 -9.2,9.199 -5.08,0 -9.2,-4.117 -9.2,-9.199" /><path
         id="path300"
         style="fill:#f9b20c;fill-opacity:1;fill-rule:nonzero;stroke:none"
         d="m 209.438,963.551 c 0,-5.449 4.417,-9.871 9.875,-9.871 5.449,0 9.867,4.422 9.867,9.871 0,5.449 -4.418,9.879 -9.867,9.879 -5.458,0 -9.875,-4.43 -9.875,-9.879" /><path
         id="path302"
         style="fill:#f9b20c;fill-opacity:1;fill-rule:nonzero;stroke:none"
         d="m 219.535,1223.98 c 0,-6.36 5.168,-11.52 11.535,-11.52 6.368,0 11.524,5.16 11.524,11.52 0,6.37 -5.156,11.54 -11.524,11.54 -6.367,0 -11.535,-5.17 -11.535,-11.54" /><path
         id="path304"
         style="fill:#f9b20c;fill-opacity:1;fill-rule:nonzero;stroke:none"
         d="m 110.465,1465.31 c 0,-4.02 3.25,-7.27 7.265,-7.27 4.016,0 7.274,3.25 7.274,7.27 0,4.02 -3.258,7.27 -7.274,7.27 -4.015,0 -7.265,-3.25 -7.265,-7.27" /><path
         id="path306"
         style="fill:#f9b20c;fill-opacity:1;fill-rule:nonzero;stroke:none"
         d="m 214.41,1581.34 c 0,-3.38 2.735,-6.12 6.113,-6.12 3.372,0 6.114,2.74 6.114,6.12 0,3.37 -2.742,6.11 -6.114,6.11 -3.378,0 -6.113,-2.74 -6.113,-6.11" /><path
         id="path308"
         style="fill:#f9b20c;fill-opacity:1;fill-rule:nonzero;stroke:none"
         d="m 214.234,1775.59 c 0,-5.82 4.715,-10.53 10.528,-10.53 5.808,0 10.519,4.71 10.519,10.53 0,5.81 -4.711,10.52 -10.519,10.52 -5.813,0 -10.528,-4.71 -10.528,-10.52" /><path
         id="path310"
         style="fill:#f9b20c;fill-opacity:1;fill-rule:nonzero;stroke:none"
         d="m 371.184,1978 c 0,-6.78 5.492,-12.28 12.269,-12.28 6.781,0 12.274,5.5 12.274,12.28 0,6.77 -5.493,12.27 -12.274,12.27 -6.777,0 -12.269,-5.5 -12.269,-12.27" /><path
         id="path312"
         style="fill:#f9b20c;fill-opacity:1;fill-rule:nonzero;stroke:none"
         d="m 429.41,2208.19 c 0,-6.43 5.219,-11.65 11.649,-11.65 6.437,0 11.652,5.22 11.652,11.65 0,6.44 -5.215,11.65 -11.652,11.65 -6.43,0 -11.649,-5.21 -11.649,-11.65" /><path
         id="path314"
         style="fill:#f9b20c;fill-opacity:1;fill-rule:nonzero;stroke:none"
         d="m 696.559,2204.81 c 0,-3.38 2.738,-6.12 6.117,-6.12 3.379,0 6.117,2.74 6.117,6.12 0,3.38 -2.738,6.12 -6.117,6.12 -3.379,0 -6.117,-2.74 -6.117,-6.12" /><path
         id="path316"
         style="fill:#f9b20c;fill-opacity:1;fill-rule:nonzero;stroke:none"
         d="m 803.316,2513.48 c 0,-6.22 5.047,-11.27 11.274,-11.27 6.23,0 11.277,5.05 11.277,11.27 0,6.23 -5.047,11.29 -11.277,11.29 -6.227,0 -11.274,-5.06 -11.274,-11.29" /><path
         id="path318"
         style="fill:#f9b20c;fill-opacity:1;fill-rule:nonzero;stroke:none"
         d="m 1016.37,2602.97 c 0,-6.45 5.24,-11.69 11.7,-11.69 6.46,0 11.69,5.24 11.69,11.69 0,6.46 -5.23,11.69 -11.69,11.69 -6.46,0 -11.7,-5.23 -11.7,-11.69" /><path
         id="path320"
         style="fill:#f9b20c;fill-opacity:1;fill-rule:nonzero;stroke:none"
         d="m 1186.3,2605.21 c 0,-4.91 3.98,-8.89 8.89,-8.89 4.91,0 8.9,3.98 8.9,8.89 0,4.91 -3.99,8.89 -8.9,8.89 -4.91,0 -8.89,-3.98 -8.89,-8.89" /><path
         id="path322"
         style="fill:#f9b20c;fill-opacity:1;fill-rule:nonzero;stroke:none"
         d="m 1453.12,2313.93 c 0,-6.42 5.2,-11.62 11.61,-11.62 6.42,0 11.62,5.2 11.62,11.62 0,6.41 -5.2,11.62 -11.62,11.62 -6.41,0 -11.61,-5.21 -11.61,-11.62" /><path
         id="path324"
         style="fill:#f9b20c;fill-opacity:1;fill-rule:nonzero;stroke:none"
         d="m 1719.89,2544.89 c 0,-2.64 2.15,-4.79 4.8,-4.79 2.65,0 4.8,2.15 4.8,4.79 0,2.65 -2.15,4.81 -4.8,4.81 -2.65,0 -4.8,-2.16 -4.8,-4.81" /><path
         id="path326"
         style="fill:#f9b20c;fill-opacity:1;fill-rule:nonzero;stroke:none"
         d="m 1933.09,2347.04 c 0,-4.84 3.92,-8.75 8.75,-8.75 4.83,0 8.75,3.91 8.75,8.75 0,4.82 -3.92,8.75 -8.75,8.75 -4.83,0 -8.75,-3.93 -8.75,-8.75" /><path
         id="path328"
         style="fill:#f9b20c;fill-opacity:1;fill-rule:nonzero;stroke:none"
         d="m 2139.25,2354.22 c 0,-3.57 2.9,-6.47 6.47,-6.47 3.57,0 6.46,2.9 6.46,6.47 0,3.57 -2.89,6.46 -6.46,6.46 -3.57,0 -6.47,-2.89 -6.47,-6.46" /><path
         id="path330"
         style="fill:#f9b20c;fill-opacity:1;fill-rule:nonzero;stroke:none"
         d="m 2421.25,2229.51 c 0,-2.46 2,-4.47 4.47,-4.47 2.47,0 4.47,2.01 4.47,4.47 0,2.47 -2,4.47 -4.47,4.47 -2.47,0 -4.47,-2 -4.47,-4.47" /><path
         id="path332"
         style="fill:#f9b20c;fill-opacity:1;fill-rule:nonzero;stroke:none"
         d="m 2578.87,2037.14 c 0,-6.26 5.08,-11.33 11.33,-11.33 6.26,0 11.33,5.07 11.33,11.33 0,6.25 -5.07,11.33 -11.33,11.33 -6.25,0 -11.33,-5.08 -11.33,-11.33" /><path
         id="path334"
         style="fill:#f9b20c;fill-opacity:1;fill-rule:nonzero;stroke:none"
         d="m 2605.9,1839.39 c 0,-6.85 5.56,-12.4 12.41,-12.4 6.85,0 12.4,5.55 12.4,12.4 0,6.85 -5.55,12.41 -12.4,12.41 -6.85,0 -12.41,-5.56 -12.41,-12.41" /><path
         id="path336"
         style="fill:#f9b20c;fill-opacity:1;fill-rule:nonzero;stroke:none"
         d="m 2702.99,1605.88 c 0,-4.75 3.85,-8.6 8.6,-8.6 4.75,0 8.61,3.85 8.61,8.6 0,4.75 -3.86,8.61 -8.61,8.61 -4.75,0 -8.6,-3.86 -8.6,-8.61" /><path
         id="path338"
         style="fill:#f9b20c;fill-opacity:1;fill-rule:nonzero;stroke:none"
         d="m 2489.28,1355.97 c 0,-5.09 4.12,-9.21 9.2,-9.21 5.09,0 9.21,4.12 9.21,9.21 0,5.08 -4.12,9.21 -9.21,9.21 -5.08,0 -9.2,-4.13 -9.2,-9.21" /><path
         id="path340"
         style="fill:#f9b20c;fill-opacity:1;fill-rule:nonzero;stroke:none"
         d="m 2689.88,1228.97 c 0,-2.95 2.39,-5.34 5.34,-5.34 2.95,0 5.34,2.39 5.34,5.34 0,2.95 -2.39,5.34 -5.34,5.34 -2.95,0 -5.34,-2.39 -5.34,-5.34" /><path
         id="path342"
         style="fill:#f9b20c;fill-opacity:1;fill-rule:nonzero;stroke:none"
         d="m 2366.47,1135.76 c 0,-2.89 2.35,-5.24 5.24,-5.24 2.9,0 5.25,2.35 5.25,5.24 0,2.9 -2.35,5.25 -5.25,5.25 -2.89,0 -5.24,-2.35 -5.24,-5.25" /><path
         id="path344"
         style="fill:#f9b20c;fill-opacity:1;fill-rule:nonzero;stroke:none"
         d="m 2629.87,1056.76 c 0,-4.64 3.76,-8.4 8.4,-8.4 4.64,0 8.39,3.76 8.39,8.4 0,4.63 -3.75,8.39 -8.39,8.39 -4.64,0 -8.4,-3.76 -8.4,-8.39" /><path
         id="path346"
         style="fill:#f9b20c;fill-opacity:1;fill-rule:nonzero;stroke:none"
         d="m 2609.43,902.07 c 0,-2.64 2.14,-4.781 4.78,-4.781 2.64,0 4.77,2.141 4.77,4.781 0,2.641 -2.13,4.782 -4.77,4.782 -2.64,0 -4.78,-2.141 -4.78,-4.782" /><path
         id="path348"
         style="fill:#ed254a;fill-opacity:1;fill-rule:nonzero;stroke:none"
         d="m 214.379,1511.3 -26.02,-37.42 45.418,-3.83 z" /><path
         id="path350"
         style="fill:#ed254a;fill-opacity:1;fill-rule:nonzero;stroke:none"
         d="m 144.555,1601.14 -43.078,-16.86 36.125,-28.88 z" /><path
         id="path352"
         style="fill:#ed254a;fill-opacity:1;fill-rule:nonzero;stroke:none"
         d="m 99.9258,2000.27 49.6762,-54.2 22.086,70.11 z" /><path
         id="path354"
         style="fill:#ed254a;fill-opacity:1;fill-rule:nonzero;stroke:none"
         d="M 69.6641,2144.33 33.832,2198.49 4.84375,2140.38 Z" /><path
         id="path356"
         style="fill:#ed254a;fill-opacity:1;fill-rule:nonzero;stroke:none"
         d="m 189.141,2254.71 34.851,56.47 -66.336,1.95 z" /><path
         id="path358"
         style="fill:#ed254a;fill-opacity:1;fill-rule:nonzero;stroke:none"
         d="m 312.207,2465.2 24.41,40.78 -47.531,0.75 z" /><path
         id="path360"
         style="fill:#ed254a;fill-opacity:1;fill-rule:nonzero;stroke:none"
         d="m 537.328,2453.83 -72.898,24.29 15.418,-75.27 z" /><path
         id="path362"
         style="fill:#ed254a;fill-opacity:1;fill-rule:nonzero;stroke:none"
         d="m 305.273,2914.55 -28.472,-35.33 44.836,-7 z" /><path
         id="path364"
         style="fill:#ed254a;fill-opacity:1;fill-rule:nonzero;stroke:none"
         d="m 757.148,2671.29 -51.027,-49 67.961,-19.7 z" /><path
         id="path366"
         style="fill:#ed254a;fill-opacity:1;fill-rule:nonzero;stroke:none"
         d="m 938.617,2616.39 7.653,83.56 -76.18,-35.15 z" /><path
         id="path368"
         style="fill:#ed254a;fill-opacity:1;fill-rule:nonzero;stroke:none"
         d="m 1060.67,2753.23 -54.35,-3.78 30.44,-45.17 z" /><path
         id="path370"
         style="fill:#ed254a;fill-opacity:1;fill-rule:nonzero;stroke:none"
         d="m 1571.65,2745.56 -57.78,-53.36 75.1,-23.35 z" /><path
         id="path372"
         style="fill:#ed254a;fill-opacity:1;fill-rule:nonzero;stroke:none"
         d="m 1716.14,2765.6 56.15,53.85 -74.71,21.69 z" /><path
         id="path374"
         style="fill:#ed254a;fill-opacity:1;fill-rule:nonzero;stroke:none"
         d="m 2221.2,2726.02 37.67,49.91 -62.06,7.67 z" /><path
         id="path376"
         style="fill:#ed254a;fill-opacity:1;fill-rule:nonzero;stroke:none"
         d="m 2392.78,2705.75 -33.35,41.48 -19.26,-49.62 z" /><path
         id="path378"
         style="fill:#ed254a;fill-opacity:1;fill-rule:nonzero;stroke:none"
         d="m 2272.05,2460.31 8.69,45.14 -43.45,-15.05 z" /><path
         id="path380"
         style="fill:#ed254a;fill-opacity:1;fill-rule:nonzero;stroke:none"
         d="m 2606.75,2696.46 -60.23,-27.47 53.9,-38.43 z" /><path
         id="path382"
         style="fill:#ed254a;fill-opacity:1;fill-rule:nonzero;stroke:none"
         d="m 2753.15,2639.79 40.38,3.45 -23.18,33.24 z" /><path
         id="path384"
         style="fill:#ed254a;fill-opacity:1;fill-rule:nonzero;stroke:none"
         d="m 2734.01,2413.32 50.23,6.88 -31.06,40.06 z" /><path
         id="path386"
         style="fill:#ed254a;fill-opacity:1;fill-rule:nonzero;stroke:none"
         d="m 2427.12,2227.52 68.71,-25.99 -11.86,72.51 z" /><path
         id="path388"
         style="fill:#ed254a;fill-opacity:1;fill-rule:nonzero;stroke:none"
         d="m 2717.71,2224.87 -56.97,-36.02 59.68,-31.32 z" /><path
         id="path390"
         style="fill:#ed254a;fill-opacity:1;fill-rule:nonzero;stroke:none"
         d="m 2788.44,2079.86 55.81,26 -50.44,35.34 z" /><path
         id="path392"
         style="fill:#ed254a;fill-opacity:1;fill-rule:nonzero;stroke:none"
         d="m 2720.53,1954.13 42.18,1.73 -22.59,35.65 z" /><path
         id="path394"
         style="fill:#ed254a;fill-opacity:1;fill-rule:nonzero;stroke:none"
         d="m 2575.12,1860.3 34.32,-42.56 19.69,51.01 z" /><path
         id="path396"
         style="fill:#ed254a;fill-opacity:1;fill-rule:nonzero;stroke:none"
         d="m 2808.22,1712.75 35.62,-26.29 4.95,44 z" /><path
         id="path398"
         style="fill:#ed254a;fill-opacity:1;fill-rule:nonzero;stroke:none"
         d="m 2742.02,1221.07 45.01,25.44 -44.55,26.26 z" /><path
         id="path400"
         style="fill:#ed254a;fill-opacity:1;fill-rule:nonzero;stroke:none"
         d="m 2737.94,1086.98 -41.48,-57.41 70.46,-7.21 z" /><path
         id="path402"
         style="fill:#ed254a;fill-opacity:1;fill-rule:nonzero;stroke:none"
         d="m 2566.53,925.32 -47.81,29.891 -1.98,-56.34 z" /><path
         id="path404"
         style="fill:#ed254a;fill-opacity:1;fill-rule:nonzero;stroke:none"
         d="m 2783.72,891.66 -48.54,24.059 3.43,-54.059 z" /><path
         id="path406"
         style="fill:#3992b9;fill-opacity:1;fill-rule:nonzero;stroke:none"
         d="m 684.848,1023.31 -18.063,60.53 -43.39,-45.91 z" /><path
         id="path408"
         style="fill:#3992b9;fill-opacity:1;fill-rule:nonzero;stroke:none"
         d="m 738.609,1158.37 -62.168,-6.42 36.645,-50.63 z" /><path
         id="path410"
         style="fill:#3992b9;fill-opacity:1;fill-rule:nonzero;stroke:none"
         d="m 149.238,1259.33 -53.6872,38.45 -6.4531,-65.7 z" /><path
         id="path412"
         style="fill:#3992b9;fill-opacity:1;fill-rule:nonzero;stroke:none"
         d="m 245.504,1490.99 -75.031,10.41 28.488,-70.19 z" /><path
         id="path414"
         style="fill:#3992b9;fill-opacity:1;fill-rule:nonzero;stroke:none"
         d="m 388.184,1633.35 -29.098,-29.18 39.836,-10.62 z" /><path
         id="path416"
         style="fill:#3992b9;fill-opacity:1;fill-rule:nonzero;stroke:none"
         d="m 282.859,1771.93 -25.023,51.32 -31.934,-47.33 z" /><path
         id="path418"
         style="fill:#3992b9;fill-opacity:1;fill-rule:nonzero;stroke:none"
         d="m 590.078,1919.38 4.508,76.73 -68.711,-34.47 z" /><path
         id="path420"
         style="fill:#3992b9;fill-opacity:1;fill-rule:nonzero;stroke:none"
         d="m 617.18,2086.13 52.871,46.19 -66.446,22.7 z" /><path
         id="path422"
         style="fill:#3992b9;fill-opacity:1;fill-rule:nonzero;stroke:none"
         d="m 181.547,2172.77 -70.867,-8.26 42.597,-57.25 z" /><path
         id="path424"
         style="fill:#3992b9;fill-opacity:1;fill-rule:nonzero;stroke:none"
         d="m 567.035,2379.55 -26.707,40.5 -21.711,-43.37 z" /><path
         id="path426"
         style="fill:#3992b9;fill-opacity:1;fill-rule:nonzero;stroke:none"
         d="m 211.453,2557.99 38.953,-57.21 30.078,62.33 z" /><path
         id="path428"
         style="fill:#3992b9;fill-opacity:1;fill-rule:nonzero;stroke:none"
         d="m 181.055,2743.39 75.168,32.35 -65.602,48.93 z" /><path
         id="path430"
         style="fill:#3992b9;fill-opacity:1;fill-rule:nonzero;stroke:none"
         d="m 443.422,2732.23 32.754,57.69 -66.336,-0.49 z" /><path
         id="path432"
         style="fill:#3992b9;fill-opacity:1;fill-rule:nonzero;stroke:none"
         d="m 2916.47,2638.36 -15.92,37.19 -24.24,-32.37 z" /><path
         id="path434"
         style="fill:#3992b9;fill-opacity:1;fill-rule:nonzero;stroke:none"
         d="m 2618.88,2429.68 50.46,67.32 -83.54,10.04 z" /><path
         id="path436"
         style="fill:#3992b9;fill-opacity:1;fill-rule:nonzero;stroke:none"
         d="m 2624.06,2267.86 -42.22,50.43 -22.55,-61.79 z" /><path
         id="path438"
         style="fill:#3992b9;fill-opacity:1;fill-rule:nonzero;stroke:none"
         d="m 2788.16,2070 81.11,-6.48 -34.94,73.49 z" /><path
         id="path440"
         style="fill:#3992b9;fill-opacity:1;fill-rule:nonzero;stroke:none"
         d="m 2710.44,2010.43 -33.38,76.16 -49.27,-66.99 z" /><path
         id="path442"
         style="fill:#3992b9;fill-opacity:1;fill-rule:nonzero;stroke:none"
         d="m 2601.75,1755.61 -4.26,79.87 -67.05,-43.62 z" /><path
         id="path444"
         style="fill:#3992b9;fill-opacity:1;fill-rule:nonzero;stroke:none"
         d="m 2606.64,1569.17 -55.16,46.71 -12.88,-71.13 z" /><path
         id="path446"
         style="fill:#3992b9;fill-opacity:1;fill-rule:nonzero;stroke:none"
         d="m 2765.09,1363.74 42.41,54.67 -68.55,9.4 z" /><path
         id="path448"
         style="fill:#3992b9;fill-opacity:1;fill-rule:nonzero;stroke:none"
         d="m 2485.8,1362.29 27.71,-37.44 18.56,42.73 z" /><path
         id="path450"
         style="fill:#3992b9;fill-opacity:1;fill-rule:nonzero;stroke:none"
         d="m 2471.35,1140.23 16.38,80.37 -77.78,-26 z" /><path
         id="path452"
         style="fill:#3992b9;fill-opacity:1;fill-rule:nonzero;stroke:none"
         d="m 2563.27,1045.4 58.49,58.26 -79.71,21.53 z" /><path
         id="path454"
         style="fill:#3992b9;fill-opacity:1;fill-rule:nonzero;stroke:none"
         d="m 2536.17,964.621 47.37,2.711 -26.02,39.668 z" /><path
         id="path456"
         style="fill:#3992b9;fill-opacity:1;fill-rule:nonzero;stroke:none"
         d="m 2525.78,798.359 -67.48,-11.89 44.04,-52.481 z" /><path
         id="path458"
         style="fill:#61c332;fill-opacity:1;fill-rule:nonzero;stroke:none"
         d="m 207.484,1286.66 -48.328,-16.99 38.871,-33.36 z" /><path
         id="path460"
         style="fill:#61c332;fill-opacity:1;fill-rule:nonzero;stroke:none"
         d="m 34.6992,1386.46 47.5469,57.59 -73.64844,12.38 z" /><path
         id="path462"
         style="fill:#61c332;fill-opacity:1;fill-rule:nonzero;stroke:none"
         d="m 61.8203,1889.88 30.1563,-43.5 22.5934,47.86 z" /><path
         id="path464"
         style="fill:#61c332;fill-opacity:1;fill-rule:nonzero;stroke:none"
         d="m 67.9258,2290.78 51.4722,-66.61 31.957,77.89 z" /><path
         id="path466"
         style="fill:#61c332;fill-opacity:1;fill-rule:nonzero;stroke:none"
         d="m 121.625,2543.71 19.938,61.99 -63.645,-13.73 z" /><path
         id="path468"
         style="fill:#61c332;fill-opacity:1;fill-rule:nonzero;stroke:none"
         d="m 368.406,2640.19 -25.929,36.15 -18.34,-40.53 z" /><path
         id="path470"
         style="fill:#61c332;fill-opacity:1;fill-rule:nonzero;stroke:none"
         d="m 288.207,2707.63 45.039,61.03 -75.371,8.49 z" /><path
         id="path472"
         style="fill:#61c332;fill-opacity:1;fill-rule:nonzero;stroke:none"
         d="m 442.992,2727.33 10.477,60.38 -57.528,-21.13 z" /><path
         id="path474"
         style="fill:#61c332;fill-opacity:1;fill-rule:nonzero;stroke:none"
         d="m 1459.17,2860.08 57.99,39.09 -62.85,30.67 z" /><path
         id="path476"
         style="fill:#61c332;fill-opacity:1;fill-rule:nonzero;stroke:none"
         d="m 1693.8,2892.08 -40.01,-20.03 37.36,-24.63 z" /><path
         id="path478"
         style="fill:#61c332;fill-opacity:1;fill-rule:nonzero;stroke:none"
         d="m 2400.94,2768.99 35.52,17.32 -32.76,22.1 z" /><path
         id="path480"
         style="fill:#61c332;fill-opacity:1;fill-rule:nonzero;stroke:none"
         d="m 2608.87,2798.61 -61.53,-57.53 80.59,-24.52 z" /><path
         id="path482"
         style="fill:#61c332;fill-opacity:1;fill-rule:nonzero;stroke:none"
         d="m 2754.94,2631.17 -68.16,-6.49 39.69,-55.79 z" /><path
         id="path484"
         style="fill:#61c332;fill-opacity:1;fill-rule:nonzero;stroke:none"
         d="m 2785.48,2290.61 -62.2,36.3 -0.35,-72.03 z" /><path
         id="path486"
         style="fill:#61c332;fill-opacity:1;fill-rule:nonzero;stroke:none"
         d="m 2439.5,2262.84 -49.25,18.36 8.73,-51.82 z" /><path
         id="path488"
         style="fill:#61c332;fill-opacity:1;fill-rule:nonzero;stroke:none"
         d="m 2752.46,2086.95 -63.63,31.14 4.85,-70.67 z" /><path
         id="path490"
         style="fill:#61c332;fill-opacity:1;fill-rule:nonzero;stroke:none"
         d="m 2650.21,1999.98 -54.72,19.34 10.61,-57.05 z" /><path
         id="path492"
         style="fill:#61c332;fill-opacity:1;fill-rule:nonzero;stroke:none"
         d="m 2442.6,1893.98 54.61,-16.43 -13.08,55.51 z" /><path
         id="path494"
         style="fill:#61c332;fill-opacity:1;fill-rule:nonzero;stroke:none"
         d="m 2726.15,1775.65 64.77,2.57 -34.61,54.79 z" /><path
         id="path496"
         style="fill:#61c332;fill-opacity:1;fill-rule:nonzero;stroke:none"
         d="m 2630.32,1649.26 -59.41,-34.04 59.18,-34.43 z" /><path
         id="path498"
         style="fill:#61c332;fill-opacity:1;fill-rule:nonzero;stroke:none"
         d="m 2622.09,1502.51 -40.59,-58.47 70.93,-5.91 z" /><path
         id="path500"
         style="fill:#61c332;fill-opacity:1;fill-rule:nonzero;stroke:none"
         d="m 2611.91,1362.17 -67.11,-3.59 36.66,-56.32 z" /><path
         id="path502"
         style="fill:#61c332;fill-opacity:1;fill-rule:nonzero;stroke:none"
         d="m 2331.68,1219.27 52.61,54.49 -73.5,18.32 z" /><path
         id="path504"
         style="fill:#61c332;fill-opacity:1;fill-rule:nonzero;stroke:none"
         d="m 2644.58,1093.44 -65.06,30.05 6.52,-71.38 z" /><path
         id="path506"
         style="fill:#61c332;fill-opacity:1;fill-rule:nonzero;stroke:none"
         d="m 2564.15,964.379 81.08,18.211 -56.32,61.1 z" /><path
         id="path508"
         style="fill:#61c332;fill-opacity:1;fill-rule:nonzero;stroke:none"
         d="m 2386.21,860.23 47.43,-39.449 10.45,60.809 z" /><path
         id="path510"
         style="fill:#f9b20c;fill-opacity:1;fill-rule:nonzero;stroke:none"
         d="m 2839.26,1232.69 -49.44,-43.99 62.82,-20.82 z" /><path
         id="path512"
         style="fill:#f9b20c;fill-opacity:1;fill-rule:nonzero;stroke:none"
         d="m 2662.49,1400.32 -22.49,-31.63 38.64,-3.66 z" /><path
         id="path514"
         style="fill:#f9b20c;fill-opacity:1;fill-rule:nonzero;stroke:none"
         d="m 2675.41,1565.46 53.39,-58.08 23.6,75.3 z" /><path
         id="path516"
         style="fill:#f9b20c;fill-opacity:1;fill-rule:nonzero;stroke:none"
         d="m 2681.92,1674.73 -41.11,-24.28 41.58,-23.47 z" /><path
         id="path518"
         style="fill:#f9b20c;fill-opacity:1;fill-rule:nonzero;stroke:none"
         d="m 2679.57,1816.85 -59.58,-12.29 40.44,-45.47 z" /><path
         id="path520"
         style="fill:#f9b20c;fill-opacity:1;fill-rule:nonzero;stroke:none"
         d="m 2741.13,1821.11 21.46,33.61 -39.84,1.78 z" /><path
         id="path522"
         style="fill:#f9b20c;fill-opacity:1;fill-rule:nonzero;stroke:none"
         d="m 2771.45,1982.79 -79.83,-23.41 60.19,-57.44 z" /><path
         id="path524"
         style="fill:#f9b20c;fill-opacity:1;fill-rule:nonzero;stroke:none"
         d="m 2805.69,2263.08 -34.24,-75.92 82.88,8.32 z" /><path
         id="path526"
         style="fill:#f9b20c;fill-opacity:1;fill-rule:nonzero;stroke:none"
         d="m 2792.67,2415.11 40.9,40.6 -55.62,15.15 z" /><path
         id="path528"
         style="fill:#f9b20c;fill-opacity:1;fill-rule:nonzero;stroke:none"
         d="m 2504.64,2418.18 52.68,50.74 -70.27,20.26 z" /><path
         id="path530"
         style="fill:#f9b20c;fill-opacity:1;fill-rule:nonzero;stroke:none"
         d="m 2403.63,2624.87 35.8,17.49 -33.04,22.26 z" /><path
         id="path532"
         style="fill:#f9b20c;fill-opacity:1;fill-rule:nonzero;stroke:none"
         d="m 2287.16,2661.89 -26.46,38.34 -19.98,-42.09 z" /><path
         id="path534"
         style="fill:#f9b20c;fill-opacity:1;fill-rule:nonzero;stroke:none"
         d="m 2090.63,2717.14 -69.04,5.55 29.73,-62.57 z" /><path
         id="path536"
         style="fill:#f9b20c;fill-opacity:1;fill-rule:nonzero;stroke:none"
         d="m 1711.74,2700.96 -37.57,-15.18 31.94,-24.96 z" /><path
         id="path538"
         style="fill:#f9b20c;fill-opacity:1;fill-rule:nonzero;stroke:none"
         d="m 1667.57,2801.03 -35.01,36.45 -14.06,-48.54 z" /><path
         id="path540"
         style="fill:#f9b20c;fill-opacity:1;fill-rule:nonzero;stroke:none"
         d="m 1496,2778.08 42.1,12.23 -31.63,30.34 z" /><path
         id="path542"
         style="fill:#f9b20c;fill-opacity:1;fill-rule:nonzero;stroke:none"
         d="m 902.527,2929.89 -42.714,-59.53 72.906,-7.22 z" /><path
         id="path544"
         style="fill:#f9b20c;fill-opacity:1;fill-rule:nonzero;stroke:none"
         d="m 791.418,2776.09 -38.492,-5.6 24.101,-30.53 z" /><path
         id="path546"
         style="fill:#f9b20c;fill-opacity:1;fill-rule:nonzero;stroke:none"
         d="m 536.273,2621.71 -78.39,18.84 22.875,-77.31 z" /><path
         id="path548"
         style="fill:#f9b20c;fill-opacity:1;fill-rule:nonzero;stroke:none"
         d="m 215.195,2652.5 31.477,-25.71 6.519,40.11 z" /><path
         id="path550"
         style="fill:#f9b20c;fill-opacity:1;fill-rule:nonzero;stroke:none"
         d="m 110.434,2643.19 -49.9145,25.09 3.2188,-55.77 z" /><path
         id="path552"
         style="fill:#f9b20c;fill-opacity:1;fill-rule:nonzero;stroke:none"
         d="m 140.043,2470.22 51.191,-63.08 29.036,75.87 z" /><path
         id="path554"
         style="fill:#f9b20c;fill-opacity:1;fill-rule:nonzero;stroke:none"
         d="m 435.012,2255.83 60.215,-16.71 -15.653,60.51 z" /><path
         id="path556"
         style="fill:#f9b20c;fill-opacity:1;fill-rule:nonzero;stroke:none"
         d="m 310.066,2175.18 -82.375,-15.75 54.836,-63.47 z" /><path
         id="path558"
         style="fill:#f9b20c;fill-opacity:1;fill-rule:nonzero;stroke:none"
         d="m 68.4141,1958.93 -20.293,56.05 -38.40235,-45.6 z" /><path
         id="path560"
         style="fill:#f9b20c;fill-opacity:1;fill-rule:nonzero;stroke:none"
         d="m 336.453,1812.6 48.203,44.33 -62.492,19.58 z" /><path
         id="path562"
         style="fill:#f9b20c;fill-opacity:1;fill-rule:nonzero;stroke:none"
         d="m 73.9492,1593.85 -30.2109,76.32 -50.98049,-64.32 z" /><path
         id="path564"
         style="fill:#f9b20c;fill-opacity:1;fill-rule:nonzero;stroke:none"
         d="m 522.363,1640.29 -53.652,-9.35 34.922,-41.79 z" /><path
         id="path566"
         style="fill:#f9b20c;fill-opacity:1;fill-rule:nonzero;stroke:none"
         d="m 222.613,1340.24 23.91,48.59 -54.039,-3.57 z" /><path
         id="path568"
         style="fill:#f9b20c;fill-opacity:1;fill-rule:nonzero;stroke:none"
         d="m 399.52,1303.54 -80.118,-22.87 59.86,-57.94 z" /><path
         id="path570"
         style="fill:#f9b20c;fill-opacity:1;fill-rule:nonzero;stroke:none"
         d="m 293.57,1141.75 33.282,53.67 -63.129,1.99 z" /><path
         id="path572"
         style="fill:#f9b20c;fill-opacity:1;fill-rule:nonzero;stroke:none"
         d="m 437.699,1067.2 -66.793,-3.51 36.438,-56.09 z" /></g></g></svg>